<svg width="2055" height="2468" viewBox="0 0 2055 2468" fill="none" xmlns="http://www.w3.org/2000/svg">
<path d="M771.654 1460.17C771.654 1620.34 599.313 1849.17 388.556 1849.17C177.8 1849.17 0 1774.34 0 1614.17C0 1454.01 193.038 1368.18 415.85 1309.18C598.962 1270.68 771.654 1300.01 771.654 1460.17Z" fill="#E2A15B" fill-opacity="0.3"/>
<path d="M1417.06 1070C1417.06 1152.29 1329.78 1253 1237.42 1253C1145.06 1253 1082.6 1152.29 1082.6 1070C1082.6 987.71 1063.68 814 1156.04 814C1248.4 814 1417.06 987.71 1417.06 1070Z" fill="#F7DBDB"/>
<path d="M568.613 2373.98C486.572 2380.39 379.372 2301.21 372.18 2209.13C364.988 2117.05 486.572 2149.41 568.613 2143C650.653 2136.59 796.318 2001.73 803.51 2093.81C810.702 2185.89 650.653 2367.57 568.613 2373.98Z" fill="#F7DBDB"/>
<path d="M2054.06 363.041C2054.06 580.089 1882.11 897.042 1745.89 897.042C1609.68 897.042 1468 737.089 1468 520.042C1468 302.994 1626.3 342.542 1760.78 31.0415C1844.15 -84.9585 2054.06 145.994 2054.06 363.041Z" fill="#EAD4BC"/>
<path d="M442.301 572.542C442.301 724.144 435.353 984.542 244.301 998.042C197.768 1001.33 20 865.644 20 714.042C20 562.439 91.7139 386.542 227.925 386.542C364.136 386.542 442.301 420.939 442.301 572.542Z" fill="#A3BD95" fill-opacity="0.2"/>
<path d="M1554.18 1843.86C1445.46 1954.59 1263.96 2149.94 1398.26 2301.16C1430.97 2337.99 1662.24 2370.41 1770.96 2259.67C1879.68 2148.94 1951.77 1967.4 1849.12 1866.61C1746.47 1765.83 1662.89 1733.13 1554.18 1843.86Z" fill="#A3BD95" fill-opacity="0.2"/>
</svg>
