<svg width="1663" height="1965" viewBox="0 0 1663 1965" fill="none" xmlns="http://www.w3.org/2000/svg">
<path d="M884.5 1576C884.5 1736.16 710.853 1965 498.5 1965C286.147 1965 107 1890.16 107 1730C107 1569.84 301.5 1484 526 1425C710.5 1386.5 884.5 1415.84 884.5 1576Z" fill="#E2A15B" fill-opacity="0.3"/>
<path d="M1493 1388C1493 1470.29 1405.06 1571 1312 1571C1218.94 1571 1156 1470.29 1156 1388C1156 1305.71 1136.94 1132 1230 1132C1323.06 1132 1493 1305.71 1493 1388Z" fill="#F7DBDB"/>
<path d="M1662.5 363.5C1662.5 580.548 1489.24 897.5 1352 897.5C1214.76 897.5 1072 737.548 1072 520.5C1072 303.452 1231.5 343 1367 31.5C1451 -84.5 1662.5 146.452 1662.5 363.5Z" fill="#EAD4BC"/>
<path d="M425.5 646C425.5 797.602 418.5 1058 226 1071.5C179.115 1074.79 0 939.102 0 787.5C0 635.898 72.2572 460 209.5 460C346.743 460 425.5 494.398 425.5 646Z" fill="#A3BD95" fill-opacity="0.2"/>
</svg>
